<?xml version="1.0" encoding="UTF-8"?>
<svg xmlns="http://www.w3.org/2000/svg" width="1400" height="960" viewBox="0 0 1400 960"
     font-family="'Inter', -apple-system, 'Segoe UI', sans-serif">
  <defs>
    <!-- Drop shadow filter -->
    <filter id="shadow" x="-5%" y="-5%" width="115%" height="115%">
      <feDropShadow dx="1" dy="1" stdDeviation="2" flood-color="#00000022"/>
    </filter>

    <!-- Solid arrowhead (association) -->
    <marker id="arrowSolid" markerWidth="8" markerHeight="8" refX="6" refY="3" orient="auto">
      <path d="M0,0 L0,6 L8,3 z" fill="#1A1A1A"/>
    </marker>

    <!-- Dashed arrowhead (realization/deployment) -->
    <marker id="arrowDashed" markerWidth="8" markerHeight="8" refX="6" refY="3" orient="auto">
      <path d="M0,0 L0,6 L8,3 z" fill="#5A5A5A"/>
    </marker>

    <!-- Open arrowhead for interface arrows -->
    <marker id="arrowOpen" markerWidth="10" markerHeight="8" refX="8" refY="3" orient="auto">
      <path d="M0,0 L8,3 L0,6" fill="none" stroke="#1A1A1A" stroke-width="1.5"/>
    </marker>
  </defs>

  <!-- ============================================================ -->
  <!-- TITLE HEADER BAR                                             -->
  <!-- ============================================================ -->
  <rect x="0" y="0" width="1400" height="42" fill="#0070AD" rx="0"/>
  <text x="700" y="17" text-anchor="middle" fill="white" font-size="14" font-weight="bold">
    Data Governance Platform — ArchiMate Model
  </text>
  <text x="700" y="34" text-anchor="middle" fill="rgba(255,255,255,0.85)" font-size="10">
    Business · Application · Technology Layers | Multiple Viewpoints
  </text>

  <!-- ============================================================ -->
  <!-- BAND 1: MOTIVATION / ACTOR VIEWPOINT (y=48 to y=235)         -->
  <!-- ============================================================ -->
  <rect x="0" y="48" width="1400" height="187" fill="#FAF9F6"/>

  <!-- Band 1 header -->
  <rect x="0" y="48" width="1400" height="28" fill="#0070AD" rx="0"/>
  <text x="700" y="67" text-anchor="middle" fill="white" font-size="11" font-weight="bold">
    BUSINESS LAYER — Motivation &amp; Actor Viewpoint
  </text>

  <!-- ── Business Actors (y=90, h=48) ── -->

  <!-- Data Owner [Actor] -->
  <rect x="30" y="90" width="150" height="48" fill="#0070AD" rx="6" filter="url(#shadow)"/>
  <text x="105" y="112" text-anchor="middle" fill="white" font-size="12" font-weight="bold">Data Owner</text>
  <!-- badge -->
  <rect x="143" y="91" width="36" height="14" fill="#003f6b" rx="3"/>
  <text x="161" y="102" text-anchor="middle" fill="white" font-size="8">Actor</text>

  <!-- Data Consumer [Actor] -->
  <rect x="200" y="90" width="160" height="48" fill="#0070AD" rx="6" filter="url(#shadow)"/>
  <text x="280" y="112" text-anchor="middle" fill="white" font-size="12" font-weight="bold">Data Consumer</text>
  <!-- badge -->
  <rect x="319" y="91" width="36" height="14" fill="#003f6b" rx="3"/>
  <text x="337" y="102" text-anchor="middle" fill="white" font-size="8">Actor</text>

  <!-- Data Steward [Actor] -->
  <rect x="380" y="90" width="160" height="48" fill="#0070AD" rx="6" filter="url(#shadow)"/>
  <text x="460" y="112" text-anchor="middle" fill="white" font-size="12" font-weight="bold">Data Steward</text>
  <!-- badge -->
  <rect x="499" y="91" width="36" height="14" fill="#003f6b" rx="3"/>
  <text x="517" y="102" text-anchor="middle" fill="white" font-size="8">Actor</text>

  <!-- Platform Admin [Actor] -->
  <rect x="560" y="90" width="160" height="48" fill="#0070AD" rx="6" filter="url(#shadow)"/>
  <text x="640" y="112" text-anchor="middle" fill="white" font-size="12" font-weight="bold">Platform Admin</text>
  <!-- badge -->
  <rect x="679" y="91" width="36" height="14" fill="#003f6b" rx="3"/>
  <text x="697" y="102" text-anchor="middle" fill="white" font-size="8">Actor</text>

  <!-- ── Business Roles (y=160, h=40) ── -->

  <!-- Dataset Registrar [Role] -->
  <rect x="30" y="160" width="150" height="40" fill="#12ABDB" rx="6" filter="url(#shadow)"/>
  <text x="105" y="184" text-anchor="middle" fill="white" font-size="11" font-weight="bold">Dataset Registrar</text>
  <!-- badge -->
  <rect x="140" y="161" width="36" height="14" fill="#0a7ea3" rx="3"/>
  <text x="158" y="172" text-anchor="middle" fill="white" font-size="8">Role</text>

  <!-- Data Requester [Role] -->
  <rect x="200" y="160" width="160" height="40" fill="#12ABDB" rx="6" filter="url(#shadow)"/>
  <text x="280" y="184" text-anchor="middle" fill="white" font-size="11" font-weight="bold">Data Requester</text>
  <!-- badge -->
  <rect x="319" y="161" width="36" height="14" fill="#0a7ea3" rx="3"/>
  <text x="337" y="172" text-anchor="middle" fill="white" font-size="8">Role</text>

  <!-- Contract Approver [Role] -->
  <rect x="380" y="160" width="160" height="40" fill="#12ABDB" rx="6" filter="url(#shadow)"/>
  <text x="460" y="184" text-anchor="middle" fill="white" font-size="11" font-weight="bold">Contract Approver</text>
  <!-- badge -->
  <rect x="499" y="161" width="36" height="14" fill="#0a7ea3" rx="3"/>
  <text x="517" y="172" text-anchor="middle" fill="white" font-size="8">Role</text>

  <!-- Compliance Officer [Role] -->
  <rect x="560" y="160" width="160" height="40" fill="#12ABDB" rx="6" filter="url(#shadow)"/>
  <text x="640" y="184" text-anchor="middle" fill="white" font-size="11" font-weight="bold">Compliance Officer</text>
  <!-- badge -->
  <rect x="679" y="161" width="36" height="14" fill="#0a7ea3" rx="3"/>
  <text x="697" y="172" text-anchor="middle" fill="white" font-size="8">Role</text>

  <!-- Actor → Role arrows (short vertical) -->
  <line x1="105" y1="138" x2="105" y2="160" stroke="#1A1A1A" stroke-width="1.5" marker-end="url(#arrowSolid)"/>
  <line x1="280" y1="138" x2="280" y2="160" stroke="#1A1A1A" stroke-width="1.5" marker-end="url(#arrowSolid)"/>
  <line x1="460" y1="138" x2="460" y2="160" stroke="#1A1A1A" stroke-width="1.5" marker-end="url(#arrowSolid)"/>
  <line x1="640" y1="138" x2="640" y2="160" stroke="#1A1A1A" stroke-width="1.5" marker-end="url(#arrowSolid)"/>

  <!-- ── Business Processes (right side, x=760+) ── -->

  <!-- Dataset Registration [Process] -->
  <rect x="760" y="88" width="175" height="38" fill="#d97706" rx="6" filter="url(#shadow)"/>
  <text x="847" y="111" text-anchor="middle" fill="white" font-size="11" font-weight="bold">Dataset Registration</text>
  <!-- badge -->
  <rect x="893" y="89" width="38" height="14" fill="#92400e" rx="3"/>
  <text x="912" y="100" text-anchor="middle" fill="white" font-size="8">Process</text>

  <!-- Subscription Request [Process] -->
  <rect x="760" y="134" width="175" height="38" fill="#d97706" rx="6" filter="url(#shadow)"/>
  <text x="847" y="157" text-anchor="middle" fill="white" font-size="11" font-weight="bold">Subscription Request</text>
  <!-- badge -->
  <rect x="893" y="135" width="38" height="14" fill="#92400e" rx="3"/>
  <text x="912" y="146" text-anchor="middle" fill="white" font-size="8">Process</text>

  <!-- Contract Approval [Process] -->
  <rect x="760" y="180" width="175" height="38" fill="#d97706" rx="6" filter="url(#shadow)"/>
  <text x="847" y="203" text-anchor="middle" fill="white" font-size="11" font-weight="bold">Contract Approval</text>
  <!-- badge -->
  <rect x="893" y="181" width="38" height="14" fill="#92400e" rx="3"/>
  <text x="912" y="192" text-anchor="middle" fill="white" font-size="8">Process</text>

  <!-- Policy Authoring [Process] -->
  <rect x="960" y="88" width="175" height="38" fill="#d97706" rx="6" filter="url(#shadow)"/>
  <text x="1047" y="111" text-anchor="middle" fill="white" font-size="11" font-weight="bold">Policy Authoring</text>
  <!-- badge -->
  <rect x="1093" y="89" width="38" height="14" fill="#92400e" rx="3"/>
  <text x="1112" y="100" text-anchor="middle" fill="white" font-size="8">Process</text>

  <!-- Compliance Review [Process] -->
  <rect x="960" y="134" width="175" height="38" fill="#d97706" rx="6" filter="url(#shadow)"/>
  <text x="1047" y="157" text-anchor="middle" fill="white" font-size="11" font-weight="bold">Compliance Review</text>
  <!-- badge -->
  <rect x="1093" y="135" width="38" height="14" fill="#92400e" rx="3"/>
  <text x="1112" y="146" text-anchor="middle" fill="white" font-size="8">Process</text>

  <!-- Role → Process dashed association lines -->
  <!-- Dataset Registrar → Dataset Registration -->
  <line x1="180" y1="180" x2="760" y2="107" stroke="#5A5A5A" stroke-width="1" stroke-dasharray="4,3" marker-end="url(#arrowDashed)"/>
  <!-- Data Requester → Subscription Request -->
  <line x1="360" y1="180" x2="760" y2="153" stroke="#5A5A5A" stroke-width="1" stroke-dasharray="4,3" marker-end="url(#arrowDashed)"/>
  <!-- Contract Approver → Contract Approval -->
  <line x1="540" y1="180" x2="760" y2="199" stroke="#5A5A5A" stroke-width="1" stroke-dasharray="4,3" marker-end="url(#arrowDashed)"/>
  <!-- Compliance Officer → Compliance Review -->
  <line x1="720" y1="180" x2="960" y2="153" stroke="#5A5A5A" stroke-width="1" stroke-dasharray="4,3" marker-end="url(#arrowDashed)"/>
  <!-- Compliance Officer → Policy Authoring -->
  <line x1="720" y1="175" x2="960" y2="107" stroke="#5A5A5A" stroke-width="1" stroke-dasharray="4,3" marker-end="url(#arrowDashed)"/>

  <!-- ============================================================ -->
  <!-- BAND 2: BUSINESS SERVICE VIEWPOINT (y=245 to y=340)          -->
  <!-- ============================================================ -->
  <rect x="0" y="245" width="1400" height="95" fill="#FAF9F6"/>

  <!-- Band 2 separator label -->
  <rect x="0" y="245" width="1400" height="22" fill="#005a8e" rx="0"/>
  <text x="700" y="260" text-anchor="middle" fill="white" font-size="10" font-weight="bold">
    Business Services — Realized by Application Components Below
  </text>

  <!-- Dataset Registration Service [Service] -->
  <rect x="20" y="272" width="180" height="50" fill="#005a8e" rx="6" filter="url(#shadow)"/>
  <text x="110" y="293" text-anchor="middle" fill="white" font-size="10" font-weight="bold">Dataset Registration</text>
  <text x="110" y="308" text-anchor="middle" fill="rgba(255,255,255,0.85)" font-size="9">Service</text>
  <!-- badge -->
  <rect x="156" y="273" width="40" height="14" fill="#003f6b" rx="3"/>
  <text x="176" y="284" text-anchor="middle" fill="white" font-size="8">Service</text>

  <!-- Subscription and Approval Service [Service] -->
  <rect x="210" y="272" width="185" height="50" fill="#005a8e" rx="6" filter="url(#shadow)"/>
  <text x="302" y="291" text-anchor="middle" fill="white" font-size="10" font-weight="bold">Subscription &amp;</text>
  <text x="302" y="305" text-anchor="middle" fill="white" font-size="10" font-weight="bold">Approval Service</text>
  <!-- badge -->
  <rect x="351" y="273" width="40" height="14" fill="#003f6b" rx="3"/>
  <text x="371" y="284" text-anchor="middle" fill="white" font-size="8">Service</text>

  <!-- Contract Generation Service [Service] -->
  <rect x="405" y="272" width="175" height="50" fill="#005a8e" rx="6" filter="url(#shadow)"/>
  <text x="492" y="291" text-anchor="middle" fill="white" font-size="10" font-weight="bold">Contract Generation</text>
  <text x="492" y="305" text-anchor="middle" fill="white" font-size="10" font-weight="bold">Service</text>
  <!-- badge -->
  <rect x="537" y="273" width="40" height="14" fill="#003f6b" rx="3"/>
  <text x="557" y="284" text-anchor="middle" fill="white" font-size="8">Service</text>

  <!-- Policy Validation Service [Service] -->
  <rect x="590" y="272" width="170" height="50" fill="#005a8e" rx="6" filter="url(#shadow)"/>
  <text x="675" y="291" text-anchor="middle" fill="white" font-size="10" font-weight="bold">Policy Validation</text>
  <text x="675" y="305" text-anchor="middle" fill="white" font-size="10" font-weight="bold">Service</text>
  <!-- badge -->
  <rect x="717" y="273" width="40" height="14" fill="#003f6b" rx="3"/>
  <text x="737" y="284" text-anchor="middle" fill="white" font-size="8">Service</text>

  <!-- Compliance Reporting Service [Service] -->
  <rect x="770" y="272" width="175" height="50" fill="#005a8e" rx="6" filter="url(#shadow)"/>
  <text x="857" y="291" text-anchor="middle" fill="white" font-size="10" font-weight="bold">Compliance Reporting</text>
  <text x="857" y="305" text-anchor="middle" fill="white" font-size="10" font-weight="bold">Service</text>
  <!-- badge -->
  <rect x="902" y="273" width="40" height="14" fill="#003f6b" rx="3"/>
  <text x="922" y="284" text-anchor="middle" fill="white" font-size="8">Service</text>

  <!-- Policy Authoring Service [Service] -->
  <rect x="955" y="272" width="165" height="50" fill="#005a8e" rx="6" filter="url(#shadow)"/>
  <text x="1037" y="291" text-anchor="middle" fill="white" font-size="10" font-weight="bold">Policy Authoring</text>
  <text x="1037" y="305" text-anchor="middle" fill="white" font-size="10" font-weight="bold">Service</text>
  <!-- badge -->
  <rect x="1077" y="273" width="40" height="14" fill="#003f6b" rx="3"/>
  <text x="1097" y="284" text-anchor="middle" fill="white" font-size="8">Service</text>

  <!-- Contract Versioning Service [Service] -->
  <rect x="1130" y="272" width="175" height="50" fill="#005a8e" rx="6" filter="url(#shadow)"/>
  <text x="1217" y="291" text-anchor="middle" fill="white" font-size="10" font-weight="bold">Contract Versioning</text>
  <text x="1217" y="305" text-anchor="middle" fill="white" font-size="10" font-weight="bold">Service</text>
  <!-- badge -->
  <rect x="1262" y="273" width="40" height="14" fill="#003f6b" rx="3"/>
  <text x="1282" y="284" text-anchor="middle" fill="white" font-size="8">Service</text>

  <!-- Realization arrows pointing down from Business Services -->
  <line x1="110" y1="322" x2="110" y2="342" stroke="#5A5A5A" stroke-width="1.5" stroke-dasharray="4,3" marker-end="url(#arrowDashed)"/>
  <line x1="302" y1="322" x2="302" y2="342" stroke="#5A5A5A" stroke-width="1.5" stroke-dasharray="4,3" marker-end="url(#arrowDashed)"/>
  <line x1="492" y1="322" x2="492" y2="342" stroke="#5A5A5A" stroke-width="1.5" stroke-dasharray="4,3" marker-end="url(#arrowDashed)"/>
  <line x1="675" y1="322" x2="675" y2="342" stroke="#5A5A5A" stroke-width="1.5" stroke-dasharray="4,3" marker-end="url(#arrowDashed)"/>
  <line x1="857" y1="322" x2="857" y2="342" stroke="#5A5A5A" stroke-width="1.5" stroke-dasharray="4,3" marker-end="url(#arrowDashed)"/>
  <line x1="1037" y1="322" x2="1037" y2="342" stroke="#5A5A5A" stroke-width="1.5" stroke-dasharray="4,3" marker-end="url(#arrowDashed)"/>
  <line x1="1217" y1="322" x2="1217" y2="342" stroke="#5A5A5A" stroke-width="1.5" stroke-dasharray="4,3" marker-end="url(#arrowDashed)"/>

  <!-- ============================================================ -->
  <!-- BAND 3: APPLICATION COMPOSITION VIEWPOINT (y=345 to y=680)   -->
  <!-- ============================================================ -->
  <rect x="0" y="345" width="1400" height="335" fill="#FFFFFF"/>

  <!-- Band 3 header -->
  <rect x="0" y="345" width="1400" height="28" fill="#12ABDB" rx="0"/>
  <text x="700" y="364" text-anchor="middle" fill="white" font-size="11" font-weight="bold">
    APPLICATION LAYER — Application Composition Viewpoint
  </text>

  <!-- ── Cluster 1: Frontend (x=10 to x=330, y=378 to y=560) ── -->
  <rect x="10" y="378" width="320" height="185" fill="rgba(0,112,173,0.06)" stroke="#E5E2DB" stroke-width="1.5" rx="6"/>
  <text x="20" y="393" fill="#0070AD" font-size="10" font-weight="bold">Frontend Cluster</text>

  <!-- React App [App] -->
  <rect x="18" y="395" width="120" height="40" fill="#0070AD" rx="6" filter="url(#shadow)"/>
  <text x="78" y="419" text-anchor="middle" fill="white" font-size="11" font-weight="bold">React App</text>
  <rect x="101" y="396" width="32" height="13" fill="#003f6b" rx="3"/>
  <text x="117" y="406" text-anchor="middle" fill="white" font-size="8">App</text>

  <!-- AuthContext.jsx [App] -->
  <rect x="150" y="395" width="130" height="40" fill="#12ABDB" rx="6" filter="url(#shadow)"/>
  <text x="215" y="419" text-anchor="middle" fill="white" font-size="10" font-weight="bold">AuthContext.jsx</text>
  <rect x="242" y="396" width="32" height="13" fill="#0a7ea3" rx="3"/>
  <text x="258" y="406" text-anchor="middle" fill="white" font-size="8">App</text>

  <!-- Zustand Store [App] -->
  <rect x="18" y="445" width="120" height="40" fill="#12ABDB" rx="6" filter="url(#shadow)"/>
  <text x="78" y="469" text-anchor="middle" fill="white" font-size="11" font-weight="bold">Zustand Store</text>
  <rect x="101" y="446" width="32" height="13" fill="#0a7ea3" rx="3"/>
  <text x="117" y="456" text-anchor="middle" fill="white" font-size="8">App</text>

  <!-- Axios api.js [App] -->
  <rect x="150" y="445" width="130" height="40" fill="#0070AD" rx="6" filter="url(#shadow)"/>
  <text x="215" y="469" text-anchor="middle" fill="white" font-size="11" font-weight="bold">Axios api.js</text>
  <rect x="242" y="446" width="32" height="13" fill="#003f6b" rx="3"/>
  <text x="258" y="456" text-anchor="middle" fill="white" font-size="8">App</text>

  <!-- Role Pages [App] -->
  <rect x="18" y="495" width="262" height="40" fill="#005a8e" rx="6" filter="url(#shadow)"/>
  <text x="149" y="519" text-anchor="middle" fill="white" font-size="11" font-weight="bold">Role Pages (Owner · Consumer · Steward · Admin)</text>
  <rect x="243" y="496" width="32" height="13" fill="#003f6b" rx="3"/>
  <text x="259" y="506" text-anchor="middle" fill="white" font-size="8">App</text>

  <!-- ── Cluster 2: API (x=340 to x=680, y=378 to y=660) ── -->
  <rect x="340" y="378" width="338" height="287" fill="rgba(0,112,173,0.06)" stroke="#E5E2DB" stroke-width="1.5" rx="6"/>
  <text x="350" y="393" fill="#0070AD" font-size="10" font-weight="bold">API Gateway Cluster</text>

  <!-- FastAPI Server :8000 [App] -->
  <rect x="348" y="395" width="180" height="40" fill="#0070AD" rx="6" filter="url(#shadow)"/>
  <text x="438" y="419" text-anchor="middle" fill="white" font-size="11" font-weight="bold">FastAPI Server :8000</text>
  <rect x="491" y="396" width="32" height="13" fill="#003f6b" rx="3"/>
  <text x="507" y="406" text-anchor="middle" fill="white" font-size="8">App</text>

  <!-- datasets · subscriptions [App] -->
  <rect x="348" y="445" width="176" height="38" fill="#005a8e" rx="6" filter="url(#shadow)"/>
  <text x="436" y="462" text-anchor="middle" fill="white" font-size="9" font-weight="bold">datasets</text>
  <text x="436" y="476" text-anchor="middle" fill="rgba(255,255,255,0.85)" font-size="9">subscriptions</text>
  <rect x="487" y="446" width="32" height="13" fill="#003f6b" rx="3"/>
  <text x="503" y="456" text-anchor="middle" fill="white" font-size="8">App</text>

  <!-- git · semantic · orchestration [App] -->
  <rect x="348" y="491" width="176" height="38" fill="#005a8e" rx="6" filter="url(#shadow)"/>
  <text x="436" y="508" text-anchor="middle" fill="white" font-size="9" font-weight="bold">git · semantic</text>
  <text x="436" y="522" text-anchor="middle" fill="rgba(255,255,255,0.85)" font-size="9">orchestration</text>
  <rect x="487" y="492" width="32" height="13" fill="#003f6b" rx="3"/>
  <text x="503" y="502" text-anchor="middle" fill="white" font-size="8">App</text>

  <!-- policy_authoring · dashboard [App] -->
  <rect x="348" y="537" width="176" height="38" fill="#005a8e" rx="6" filter="url(#shadow)"/>
  <text x="436" y="554" text-anchor="middle" fill="white" font-size="9" font-weight="bold">policy_authoring</text>
  <text x="436" y="568" text-anchor="middle" fill="rgba(255,255,255,0.85)" font-size="9">dashboard</text>
  <rect x="487" y="538" width="32" height="13" fill="#003f6b" rx="3"/>
  <text x="503" y="548" text-anchor="middle" fill="white" font-size="8">App</text>

  <!-- reports · exchange · conflicts [App] -->
  <rect x="348" y="583" width="176" height="38" fill="#005a8e" rx="6" filter="url(#shadow)"/>
  <text x="436" y="600" text-anchor="middle" fill="white" font-size="9" font-weight="bold">reports · exchange</text>
  <text x="436" y="614" text-anchor="middle" fill="rgba(255,255,255,0.85)" font-size="9">conflicts</text>
  <rect x="487" y="584" width="32" height="13" fill="#003f6b" rx="3"/>
  <text x="503" y="594" text-anchor="middle" fill="white" font-size="8">App</text>

  <!-- domain_governance [App] -->
  <rect x="348" y="629" width="176" height="38" fill="#005a8e" rx="6" filter="url(#shadow)"/>
  <text x="436" y="651" text-anchor="middle" fill="white" font-size="10" font-weight="bold">domain_governance</text>
  <rect x="487" y="630" width="32" height="13" fill="#003f6b" rx="3"/>
  <text x="503" y="640" text-anchor="middle" fill="white" font-size="8">App</text>

  <!-- ── Cluster 3: Services (x=690 to x=1060, y=378 to y=660) ── -->
  <rect x="690" y="378" width="368" height="287" fill="rgba(217,119,6,0.06)" stroke="#d97706" stroke-width="1.5" rx="6"/>
  <text x="700" y="393" fill="#d97706" font-size="10" font-weight="bold">Services Cluster</text>

  <!-- ContractService [App] -->
  <rect x="698" y="395" width="160" height="38" fill="#d97706" rx="6" filter="url(#shadow)"/>
  <text x="778" y="418" text-anchor="middle" fill="white" font-size="11" font-weight="bold">ContractService</text>
  <rect x="821" y="396" width="32" height="13" fill="#92400e" rx="3"/>
  <text x="837" y="406" text-anchor="middle" fill="white" font-size="8">App</text>

  <!-- PolicyEngine [App] -->
  <rect x="698" y="441" width="160" height="38" fill="#d97706" rx="6" filter="url(#shadow)"/>
  <text x="778" y="464" text-anchor="middle" fill="white" font-size="11" font-weight="bold">PolicyEngine</text>
  <rect x="821" y="442" width="32" height="13" fill="#92400e" rx="3"/>
  <text x="837" y="452" text-anchor="middle" fill="white" font-size="8">App</text>

  <!-- SemanticPolicyEngine [App] -->
  <rect x="698" y="487" width="160" height="38" fill="#d97706" rx="6" filter="url(#shadow)"/>
  <text x="778" y="503" text-anchor="middle" fill="white" font-size="9" font-weight="bold">SemanticPolicy</text>
  <text x="778" y="518" text-anchor="middle" fill="white" font-size="9" font-weight="bold">Engine</text>
  <rect x="821" y="488" width="32" height="13" fill="#92400e" rx="3"/>
  <text x="837" y="498" text-anchor="middle" fill="white" font-size="8">App</text>

  <!-- PolicyOrchestrator [App] -->
  <rect x="698" y="533" width="160" height="38" fill="#d97706" rx="6" filter="url(#shadow)"/>
  <text x="778" y="549" text-anchor="middle" fill="white" font-size="9" font-weight="bold">Policy</text>
  <text x="778" y="564" text-anchor="middle" fill="white" font-size="9" font-weight="bold">Orchestrator</text>
  <rect x="821" y="534" width="32" height="13" fill="#92400e" rx="3"/>
  <text x="837" y="544" text-anchor="middle" fill="white" font-size="8">App</text>

  <!-- GitService [App] -->
  <rect x="868" y="395" width="155" height="38" fill="#d97706" rx="6" filter="url(#shadow)"/>
  <text x="945" y="418" text-anchor="middle" fill="white" font-size="11" font-weight="bold">GitService</text>
  <rect x="987" y="396" width="32" height="13" fill="#92400e" rx="3"/>
  <text x="1003" y="406" text-anchor="middle" fill="white" font-size="8">App</text>

  <!-- OllamaClient [App] -->
  <rect x="868" y="441" width="155" height="38" fill="#d97706" rx="6" filter="url(#shadow)"/>
  <text x="945" y="464" text-anchor="middle" fill="white" font-size="11" font-weight="bold">OllamaClient</text>
  <rect x="987" y="442" width="32" height="13" fill="#92400e" rx="3"/>
  <text x="1003" y="452" text-anchor="middle" fill="white" font-size="8">App</text>

  <!-- PostgresConnector [App] -->
  <rect x="868" y="487" width="155" height="38" fill="#d97706" rx="6" filter="url(#shadow)"/>
  <text x="945" y="503" text-anchor="middle" fill="white" font-size="9" font-weight="bold">Postgres</text>
  <text x="945" y="518" text-anchor="middle" fill="white" font-size="9" font-weight="bold">Connector</text>
  <rect x="987" y="488" width="32" height="13" fill="#92400e" rx="3"/>
  <text x="1003" y="498" text-anchor="middle" fill="white" font-size="8">App</text>

  <!-- AuthoredPolicyLoader [App] -->
  <rect x="868" y="533" width="155" height="38" fill="#d97706" rx="6" filter="url(#shadow)"/>
  <text x="945" y="549" text-anchor="middle" fill="white" font-size="9" font-weight="bold">AuthoredPolicy</text>
  <text x="945" y="564" text-anchor="middle" fill="white" font-size="9" font-weight="bold">Loader</text>
  <rect x="987" y="534" width="32" height="13" fill="#92400e" rx="3"/>
  <text x="1003" y="544" text-anchor="middle" fill="white" font-size="8">App</text>

  <!-- ── Cluster 4: Pydantic Schemas (x=1070 to x=1390, y=378 to y=560) ── -->
  <rect x="1070" y="378" width="318" height="195" fill="rgba(0,112,173,0.06)" stroke="#E5E2DB" stroke-width="1.5" rx="6"/>
  <text x="1080" y="393" fill="#12ABDB" font-size="10" font-weight="bold">Pydantic Schemas</text>

  <!-- DatasetCreate [App] -->
  <rect x="1078" y="395" width="140" height="38" fill="#12ABDB" rx="6" filter="url(#shadow)"/>
  <text x="1148" y="418" text-anchor="middle" fill="white" font-size="10" font-weight="bold">DatasetCreate</text>
  <rect x="1181" y="396" width="32" height="13" fill="#0a7ea3" rx="3"/>
  <text x="1197" y="406" text-anchor="middle" fill="white" font-size="8">App</text>

  <!-- SubscriptionCreate [App] -->
  <rect x="1078" y="441" width="140" height="38" fill="#12ABDB" rx="6" filter="url(#shadow)"/>
  <text x="1148" y="457" text-anchor="middle" fill="white" font-size="9" font-weight="bold">Subscription</text>
  <text x="1148" y="472" text-anchor="middle" fill="white" font-size="9" font-weight="bold">Create</text>
  <rect x="1181" y="442" width="32" height="13" fill="#0a7ea3" rx="3"/>
  <text x="1197" y="452" text-anchor="middle" fill="white" font-size="8">App</text>

  <!-- ValidationResult [App] -->
  <rect x="1078" y="487" width="140" height="38" fill="#12ABDB" rx="6" filter="url(#shadow)"/>
  <text x="1148" y="503" text-anchor="middle" fill="white" font-size="9" font-weight="bold">Validation</text>
  <text x="1148" y="518" text-anchor="middle" fill="white" font-size="9" font-weight="bold">Result</text>
  <rect x="1181" y="488" width="32" height="13" fill="#0a7ea3" rx="3"/>
  <text x="1197" y="498" text-anchor="middle" fill="white" font-size="8">App</text>

  <!-- Violation [App] -->
  <rect x="1230" y="395" width="140" height="38" fill="#12ABDB" rx="6" filter="url(#shadow)"/>
  <text x="1300" y="418" text-anchor="middle" fill="white" font-size="10" font-weight="bold">Violation</text>
  <rect x="1333" y="396" width="32" height="13" fill="#0a7ea3" rx="3"/>
  <text x="1349" y="406" text-anchor="middle" fill="white" font-size="8">App</text>

  <!-- OrchestrationDecision [App] -->
  <rect x="1230" y="441" width="140" height="38" fill="#12ABDB" rx="6" filter="url(#shadow)"/>
  <text x="1300" y="457" text-anchor="middle" fill="white" font-size="9" font-weight="bold">Orchestration</text>
  <text x="1300" y="472" text-anchor="middle" fill="white" font-size="9" font-weight="bold">Decision</text>
  <rect x="1333" y="442" width="32" height="13" fill="#0a7ea3" rx="3"/>
  <text x="1349" y="452" text-anchor="middle" fill="white" font-size="8">App</text>

  <!-- ContractResponse [App] -->
  <rect x="1230" y="487" width="140" height="38" fill="#12ABDB" rx="6" filter="url(#shadow)"/>
  <text x="1300" y="503" text-anchor="middle" fill="white" font-size="9" font-weight="bold">Contract</text>
  <text x="1300" y="518" text-anchor="middle" fill="white" font-size="9" font-weight="bold">Response</text>
  <rect x="1333" y="488" width="32" height="13" fill="#0a7ea3" rx="3"/>
  <text x="1349" y="498" text-anchor="middle" fill="white" font-size="8">App</text>

  <!-- ── Interface arrows between clusters ── -->

  <!-- Frontend → API: REST /api/v1 -->
  <line x1="330" y1="465" x2="340" y2="465" stroke="#1A1A1A" stroke-width="2" marker-end="url(#arrowOpen)"/>
  <text x="334" y="458" text-anchor="middle" fill="#1A1A1A" font-size="8" font-style="italic">REST /api/v1</text>
  <text x="334" y="480" text-anchor="middle" fill="#555" font-size="8">(Axios→FastAPI)</text>

  <!-- API → Services: Python calls -->
  <line x1="678" y1="500" x2="690" y2="500" stroke="#1A1A1A" stroke-width="2" marker-end="url(#arrowOpen)"/>
  <text x="683" y="493" text-anchor="middle" fill="#1A1A1A" font-size="8" font-style="italic">Python calls</text>
  <text x="683" y="515" text-anchor="middle" fill="#555" font-size="8">(injection)</text>

  <!-- Services → Pydantic Schemas: validates / returns -->
  <line x1="1058" y1="480" x2="1070" y2="480" stroke="#1A1A1A" stroke-width="2" marker-end="url(#arrowOpen)"/>
  <text x="1063" y="473" text-anchor="middle" fill="#1A1A1A" font-size="8" font-style="italic">validates /</text>
  <text x="1063" y="495" text-anchor="middle" fill="#555" font-size="8">returns</text>

  <!-- ============================================================ -->
  <!-- BAND 4: TECHNOLOGY INFRASTRUCTURE VIEWPOINT (y=685 to y=945) -->
  <!-- ============================================================ -->
  <rect x="0" y="685" width="1400" height="260" fill="#F4F3EE"/>

  <!-- Band 4 header -->
  <rect x="0" y="685" width="1400" height="28" fill="#16a34a" rx="0"/>
  <text x="700" y="704" text-anchor="middle" fill="white" font-size="11" font-weight="bold">
    TECHNOLOGY LAYER — Infrastructure Viewpoint
  </text>

  <!-- Backend Server Node -->
  <rect x="10" y="720" width="248" height="80" fill="#16a34a" rx="6" filter="url(#shadow)"/>
  <text x="134" y="745" text-anchor="middle" fill="white" font-size="11" font-weight="bold">Backend Server</text>
  <text x="134" y="762" text-anchor="middle" fill="rgba(255,255,255,0.85)" font-size="10">FastAPI + uvicorn</text>
  <text x="134" y="778" text-anchor="middle" fill="rgba(255,255,255,0.75)" font-size="10">:8000</text>
  <rect x="220" y="721" width="34" height="14" fill="#14532d" rx="3"/>
  <text x="237" y="732" text-anchor="middle" fill="white" font-size="8">Node</text>

  <!-- Frontend Dev Server Node -->
  <rect x="268" y="720" width="248" height="80" fill="#16a34a" rx="6" filter="url(#shadow)"/>
  <text x="392" y="745" text-anchor="middle" fill="white" font-size="11" font-weight="bold">Frontend Dev Server</text>
  <text x="392" y="762" text-anchor="middle" fill="rgba(255,255,255,0.85)" font-size="10">Vite + React SPA</text>
  <text x="392" y="778" text-anchor="middle" fill="rgba(255,255,255,0.75)" font-size="10">:3000</text>
  <rect x="478" y="721" width="34" height="14" fill="#14532d" rx="3"/>
  <text x="495" y="732" text-anchor="middle" fill="white" font-size="8">Node</text>

  <!-- Git Repository Node -->
  <rect x="526" y="720" width="218" height="80" fill="#16a34a" rx="6" filter="url(#shadow)"/>
  <text x="635" y="745" text-anchor="middle" fill="white" font-size="11" font-weight="bold">Git Repository</text>
  <text x="635" y="762" text-anchor="middle" fill="rgba(255,255,255,0.85)" font-size="10">backend/contracts/</text>
  <text x="635" y="778" text-anchor="middle" fill="rgba(255,255,255,0.75)" font-size="10">.git objects</text>
  <rect x="708" y="721" width="30" height="14" fill="#14532d" rx="3"/>
  <text x="723" y="732" text-anchor="middle" fill="white" font-size="8">Node</text>

  <!-- Docker Container / PostgreSQL Node -->
  <rect x="754" y="720" width="218" height="80" fill="#16a34a" rx="6" filter="url(#shadow)"/>
  <text x="863" y="745" text-anchor="middle" fill="white" font-size="11" font-weight="bold">Docker Container</text>
  <text x="863" y="762" text-anchor="middle" fill="rgba(255,255,255,0.85)" font-size="10">PostgreSQL 15</text>
  <text x="863" y="778" text-anchor="middle" fill="rgba(255,255,255,0.75)" font-size="10">:5432</text>
  <rect x="936" y="721" width="30" height="14" fill="#14532d" rx="3"/>
  <text x="951" y="732" text-anchor="middle" fill="white" font-size="8">Node</text>

  <!-- Ollama LLM Server Node -->
  <rect x="982" y="720" width="218" height="80" fill="#16a34a" rx="6" filter="url(#shadow)"/>
  <text x="1091" y="745" text-anchor="middle" fill="white" font-size="11" font-weight="bold">Ollama LLM Server</text>
  <text x="1091" y="762" text-anchor="middle" fill="rgba(255,255,255,0.85)" font-size="10">mistral:7b</text>
  <text x="1091" y="778" text-anchor="middle" fill="rgba(255,255,255,0.75)" font-size="10">:11434</text>
  <rect x="1164" y="721" width="30" height="14" fill="#14532d" rx="3"/>
  <text x="1179" y="732" text-anchor="middle" fill="white" font-size="8">Node</text>

  <!-- SQLite DB Node -->
  <rect x="1210" y="720" width="178" height="80" fill="#16a34a" rx="6" filter="url(#shadow)"/>
  <text x="1299" y="745" text-anchor="middle" fill="white" font-size="11" font-weight="bold">SQLite DB</text>
  <text x="1299" y="762" text-anchor="middle" fill="rgba(255,255,255,0.85)" font-size="10">governance_metadata</text>
  <text x="1299" y="778" text-anchor="middle" fill="rgba(255,255,255,0.75)" font-size="10">8 tables</text>
  <rect x="1352" y="721" width="30" height="14" fill="#14532d" rx="3"/>
  <text x="1367" y="732" text-anchor="middle" fill="white" font-size="8">Node</text>

  <!-- ── Deployment arrows from App layer down to Tech nodes ── -->
  <!-- FastAPI Server :8000 (x=438,y=415+40=455) → Backend Server node (x=134,y=720) -->
  <line x1="438" y1="435" x2="438" y2="665" stroke="#5A5A5A" stroke-width="1" stroke-dasharray="4,3"/>
  <line x1="438" y1="665" x2="134" y2="720" stroke="#5A5A5A" stroke-width="1" stroke-dasharray="4,3" marker-end="url(#arrowDashed)"/>

  <!-- React App (x=78,y=395+40=435) → Frontend Dev Server (x=392,y=720) -->
  <line x1="78" y1="435" x2="78" y2="670" stroke="#5A5A5A" stroke-width="1" stroke-dasharray="4,3"/>
  <line x1="78" y1="670" x2="392" y2="720" stroke="#5A5A5A" stroke-width="1" stroke-dasharray="4,3" marker-end="url(#arrowDashed)"/>

  <!-- GitService (x=945, y=395+38=433) → Git Repository (x=635,y=720) -->
  <line x1="945" y1="433" x2="945" y2="675" stroke="#5A5A5A" stroke-width="1" stroke-dasharray="4,3"/>
  <line x1="945" y1="675" x2="635" y2="720" stroke="#5A5A5A" stroke-width="1" stroke-dasharray="4,3" marker-end="url(#arrowDashed)"/>

  <!-- PostgresConnector (x=945, y=487+38=525) → Docker Container (x=863,y=720) -->
  <line x1="970" y1="525" x2="970" y2="680" stroke="#5A5A5A" stroke-width="1" stroke-dasharray="4,3"/>
  <line x1="970" y1="680" x2="863" y2="720" stroke="#5A5A5A" stroke-width="1" stroke-dasharray="4,3" marker-end="url(#arrowDashed)"/>

  <!-- OllamaClient (x=945, y=441+38=479) → Ollama LLM Server (x=1091,y=720) -->
  <line x1="995" y1="479" x2="1091" y2="479" stroke="#5A5A5A" stroke-width="1" stroke-dasharray="4,3"/>
  <line x1="1091" y1="479" x2="1091" y2="720" stroke="#5A5A5A" stroke-width="1" stroke-dasharray="4,3" marker-end="url(#arrowDashed)"/>

  <!-- ContractService (x=778, y=395+38=433) → SQLite DB (x=1299,y=720) -->
  <line x1="778" y1="433" x2="778" y2="670" stroke="#5A5A5A" stroke-width="1" stroke-dasharray="4,3"/>
  <line x1="778" y1="670" x2="1299" y2="720" stroke="#5A5A5A" stroke-width="1" stroke-dasharray="4,3" marker-end="url(#arrowDashed)"/>

  <!-- ── Deployment label annotations ── -->
  <text x="220" y="645" fill="#5A5A5A" font-size="8" font-style="italic">deploys to</text>
  <text x="750" y="645" fill="#5A5A5A" font-size="8" font-style="italic">deploys to</text>
  <text x="800" y="700" fill="#5A5A5A" font-size="8" font-style="italic">deploys to</text>

  <!-- ============================================================ -->
  <!-- LEGEND                                                        -->
  <!-- ============================================================ -->
  <rect x="1155" y="820" width="230" height="115" fill="white" stroke="#E5E2DB" stroke-width="1" rx="6"/>
  <text x="1270" y="838" text-anchor="middle" fill="#1A1A1A" font-size="9" font-weight="bold">Legend</text>

  <!-- Solid arrow -->
  <line x1="1165" y1="854" x2="1205" y2="854" stroke="#1A1A1A" stroke-width="1.5" marker-end="url(#arrowSolid)"/>
  <text x="1213" y="858" fill="#1A1A1A" font-size="9">Association / Realizes</text>

  <!-- Dashed arrow -->
  <line x1="1165" y1="872" x2="1205" y2="872" stroke="#5A5A5A" stroke-width="1" stroke-dasharray="4,3" marker-end="url(#arrowDashed)"/>
  <text x="1213" y="876" fill="#1A1A1A" font-size="9">Realization / Deployment</text>

  <!-- Open arrow -->
  <line x1="1165" y1="890" x2="1205" y2="890" stroke="#1A1A1A" stroke-width="1.5" marker-end="url(#arrowOpen)"/>
  <text x="1213" y="894" fill="#1A1A1A" font-size="9">Interface (composition)</text>

  <!-- Color swatches -->
  <rect x="1165" y="903" width="14" height="10" fill="#0070AD" rx="2"/>
  <text x="1183" y="912" fill="#1A1A1A" font-size="9">Actor / App Component</text>
  <rect x="1165" y="916" width="14" height="10" fill="#d97706" rx="2"/>
  <text x="1183" y="925" fill="#1A1A1A" font-size="9">Process / Service Logic</text>
  <rect x="1165" y="929" width="14" height="10" fill="#16a34a" rx="2"/>
  <text x="1183" y="938" fill="#1A1A1A" font-size="9">Technology Node</text>

</svg>
